<?xml version="1.0" encoding="iso-8859-1"?>
<!-- Generator: Adobe Illustrator 16.0.0, SVG Export Plug-In . SVG Version: 6.00 Build 0)  -->
<!DOCTYPE svg PUBLIC "-//W3C//DTD SVG 1.1//EN" "http://www.w3.org/Graphics/SVG/1.1/DTD/svg11.dtd">
<svg version="1.1" id="Capa_1" xmlns="http://www.w3.org/2000/svg" xmlns:xlink="http://www.w3.org/1999/xlink" x="0px" y="0px"
	 width="325.034px" height="325.034px" viewBox="0 0 325.034 325.034" style="enable-background:new 0 0 325.034 325.034;"
	 xml:space="preserve">
<g>
	<g>
		<path d="M270.005,76.41c-1.266-0.349-2.54-0.529-3.803-0.786l-79.363-30.538l-0.761-0.046
			c-1.672-0.134-41.447-2.577-70.651,46.144c-16.783,27.986-23.321,31.222-29.643,34.324c-4.324,2.126-9.229,4.552-16.068,12.591
			c-12.795,15.058-50.119,52.675-65.567,68.148c-3.069,3.042-4.538,7.045-4.06,10.984c0.487,3.924,2.875,7.438,6.57,9.674
			l46.328,27.892l11.058,18.615c1.864,3.157,4.673,5.374,7.881,6.239c4.448,1.187,9.173-0.293,12.651-3.955l56.811-60.184
			l55.946,29.427c7.021,5.534,15.023,9.798,23.924,12.187c41.669,11.24,86.492-20.162,99.934-69.978
			C334.637,137.32,311.662,87.643,270.005,76.41z M148.736,207.741l18.426-19.513c1.641,12.889,5.598,24.971,11.658,35.334
			L148.736,207.741z M181.71,113.063c-11.957,19.979-22.117,30.661-28.804,36.228c-4.396,3.635-12.764,3.685-17.907,1.234
			l-22.397-10.664c-5.134-2.449-5.282-6.727-0.886-10.337c13.423-11.061,21.807-26.259,26.181-36.011
			c2.33-5.182,7.977-7.701,13.17-5.384l26.351,11.776C182.615,102.228,184.631,108.173,181.71,113.063z"/>
		<polygon points="2.546,227.213 12.344,245.318 61.034,274.637 51.392,257.293 		"/>
	</g>
</g>
<g>
</g>
<g>
</g>
<g>
</g>
<g>
</g>
<g>
</g>
<g>
</g>
<g>
</g>
<g>
</g>
<g>
</g>
<g>
</g>
<g>
</g>
<g>
</g>
<g>
</g>
<g>
</g>
<g>
</g>
</svg>
